PathFileType	4	(X/Y/Z)	C:\Users\u0145647\OneDrive - KU Leuven\KU Leuven\c3d2osim\CP16\T0\Data\Processed\ViconC3D\CP16_T0_08_gapFilled.trc
DataRate	CameraRate	NumFrames	NumMarkers	Units	OrigDataRate	OrigDataStartFrame	OrigNumFrames
100.000000	100.000000	8	47	mm	100.000000	1	729
Frame#	Time	C7			T10			CLAV			STRN			LSHO			RSHO			RBAK			LASI			RASI			LPSI			RPSI			LLAT			RLAT			LF1			LF2			LF3			LTHI			LKNE			LMEK			RF1			RF2			RF3			RTHI			RKNE			RMEK			LT1			LT2			LT3			LTIB			LMM			LANK			RT1			RT2			RT3			RTIB			RANK			RMM			LHEE			LSTL			LLCA			LTOE			LCM5			RHEE			RSTL			RLCA			RTOE			RCM5
		X1	Y1	Z1	X2	Y2	Z2	X3	Y3	Z3	X4	Y4	Z4	X5	Y5	Z5	X6	Y6	Z6	X7	Y7	Z7	X8	Y8	Z8	X9	Y9	Z9	X10	Y10	Z10	X11	Y11	Z11	X12	Y12	Z12	X13	Y13	Z13	X14	Y14	Z14	X15	Y15	Z15	X16	Y16	Z16	X17	Y17	Z17	X18	Y18	Z18	X19	Y19	Z19	X20	Y20	Z20	X21	Y21	Z21	X22	Y22	Z22	X23	Y23	Z23	X24	Y24	Z24	X25	Y25	Z25	X26	Y26	Z26	X27	Y27	Z27	X28	Y28	Z28	X29	Y29	Z29	X30	Y30	Z30	X31	Y31	Z31	X32	Y32	Z32	X33	Y33	Z33	X34	Y34	Z34	X35	Y35	Z35	X36	Y36	Z36	X37	Y37	Z37	X38	Y38	Z38	X39	Y39	Z39	X40	Y40	Z40	X41	Y41	Z41	X42	Y42	Z42	X43	Y43	Z43	X44	Y44	Z44	X45	Y45	Z45	X46	Y46	Z46	X47	Y47	Z47

1	0	NaN	NaN	NaN	NaN	NaN	NaN	NaN	NaN	NaN	NaN	NaN	NaN	NaN	NaN	NaN	NaN	NaN	NaN	NaN	NaN	NaN	NaN	NaN	NaN	NaN	NaN	NaN	NaN	NaN	NaN	NaN	NaN	NaN	NaN	NaN	NaN	NaN	NaN	NaN	NaN	NaN	NaN	NaN	NaN	NaN	NaN	NaN	NaN	NaN	NaN	NaN	NaN	NaN	NaN	NaN	NaN	NaN	NaN	NaN	NaN	NaN	NaN	NaN	NaN	NaN	NaN	NaN	NaN	NaN	NaN	NaN	NaN	NaN	NaN	NaN	NaN	NaN	NaN	NaN	NaN	NaN	NaN	NaN	NaN	NaN	NaN	NaN	NaN	NaN	NaN	NaN	NaN	NaN	NaN	NaN	NaN	NaN	NaN	NaN	NaN	NaN	NaN	NaN	NaN	NaN	NaN	NaN	NaN	NaN	NaN	NaN	NaN	NaN	NaN	NaN	NaN	NaN	NaN	NaN	NaN	NaN	NaN	NaN	NaN	NaN	NaN	NaN	NaN	NaN	NaN	NaN	NaN	NaN	NaN	NaN	NaN	NaN	NaN	NaN	NaN	NaN
2	0.01	NaN	NaN	NaN	NaN	NaN	NaN	NaN	NaN	NaN	NaN	NaN	NaN	NaN	NaN	NaN	NaN	NaN	NaN	NaN	NaN	NaN	NaN	NaN	NaN	NaN	NaN	NaN	NaN	NaN	NaN	NaN	NaN	NaN	NaN	NaN	NaN	NaN	NaN	NaN	NaN	NaN	NaN	NaN	NaN	NaN	NaN	NaN	NaN	NaN	NaN	NaN	NaN	NaN	NaN	NaN	NaN	NaN	NaN	NaN	NaN	NaN	NaN	NaN	NaN	NaN	NaN	NaN	NaN	NaN	NaN	NaN	NaN	NaN	NaN	NaN	NaN	NaN	NaN	NaN	NaN	NaN	NaN	NaN	NaN	NaN	NaN	NaN	NaN	NaN	NaN	NaN	NaN	NaN	NaN	NaN	NaN	NaN	NaN	NaN	NaN	NaN	NaN	NaN	NaN	NaN	NaN	NaN	NaN	NaN	NaN	NaN	NaN	NaN	NaN	NaN	NaN	NaN	NaN	NaN	NaN	NaN	NaN	NaN	NaN	NaN	NaN	NaN	NaN	NaN	NaN	NaN	NaN	NaN	NaN	NaN	NaN	NaN	NaN	NaN	NaN	NaN
3	0.02	NaN	NaN	NaN	NaN	NaN	NaN	NaN	NaN	NaN	NaN	NaN	NaN	-2737.4	1350	-391.96	-2756.8	1383.6	-27.062	NaN	NaN	NaN	NaN	NaN	NaN	NaN	NaN	NaN	NaN	NaN	NaN	NaN	NaN	NaN	-2824.6	982.77	-329.91	-2762.6	979.37	-54.311	-2833.4	668.98	-355.38	-2815	712.47	-361.47	-2859.7	704.73	-358.87	NaN	NaN	NaN	NaN	NaN	NaN	-2865.1	449.46	-201.8	-2728.9	694.04	-8.4773	-2765	719.19	-11.884	-2729.3	736.45	-18.906	NaN	NaN	NaN	NaN	NaN	NaN	-2637.4	457.94	-112.46	-2878.7	372.73	-330.59	-2847.4	353.95	-312.33	-2881.3	321.66	-326.75	NaN	NaN	NaN	-2968.9	54.939	-235.59	-2974.6	57.291	-326.59	-2643.1	334.29	28.108	-2653.7	368.46	27.673	-2616.9	360.7	19.126	NaN	NaN	NaN	-2651	65.205	38.848	-2641.3	67.979	-54.86	NaN	NaN	NaN	-2952.2	20.17	-241.12	-2961.7	32.017	-336.44	-2858.4	30.938	-325.42	-2881.2	13.477	-366.71	NaN	NaN	NaN	-2623.8	38.998	-50.214	-2628.3	45.286	46.838	-2530.6	70.695	19.743	-2558.6	57.003	66.306
4	0.03	NaN	NaN	NaN	NaN	NaN	NaN	NaN	NaN	NaN	NaN	NaN	NaN	-2732.6	1350.9	-388.18	-2751.6	1381.5	-22.955	NaN	NaN	NaN	NaN	NaN	NaN	-2714.3	892.66	-88.706	NaN	NaN	NaN	NaN	NaN	NaN	-2819.2	982.91	-328.39	-2757	977.96	-52.997	-2829.8	668.55	-354.9	-2810.6	711.18	-360.37	NaN	NaN	NaN	NaN	NaN	NaN	NaN	NaN	NaN	-2862.4	448.97	-201.1	-2725.2	691.42	-7.1614	-2760.9	716.96	-10.869	-2725.3	734.31	-17.146	NaN	NaN	NaN	NaN	NaN	NaN	-2634.4	455.65	-111.12	-2879.3	370.53	-328.95	-2847.1	351.82	-311.79	-2879.5	320.89	-326.28	NaN	NaN	NaN	-2968.7	54.967	-235.45	-2974.5	57.506	-326.4	-2638.8	330.1	28.21	-2650.2	365.12	28.463	-2613.4	358.01	20.243	NaN	NaN	NaN	-2644.5	61.445	39.267	-2634.5	66.212	-55.02	NaN	NaN	NaN	-2950.4	21.331	-241.23	-2961.2	32.268	-336.36	-2858.4	31.055	-325.39	-2881.2	13.496	-366.7	NaN	NaN	NaN	-2618.3	37.185	-49.819	-2623.4	40.678	46.722	-2524.3	66.567	20.449	-2553.6	53.145	66.765
5	0.04	NaN	NaN	NaN	NaN	NaN	NaN	NaN	NaN	NaN	NaN	NaN	NaN	-2727.5	1351.3	-383.88	-2747.6	1380.1	-17.065	NaN	NaN	NaN	NaN	NaN	NaN	-2708.5	891.22	-87.618	NaN	NaN	NaN	NaN	NaN	NaN	-2813.6	982.28	-326.53	-2751.3	976.34	-51.547	-2825.5	668.24	-353.8	-2806.1	710.45	-359.47	NaN	NaN	NaN	NaN	NaN	NaN	NaN	NaN	NaN	-2859.6	448.25	-200.35	-2721.4	688.78	-5.8073	-2756.7	714.84	-9.5714	-2720.8	731.66	-15.524	NaN	NaN	NaN	NaN	NaN	NaN	-2631.5	453.34	-109.61	-2875.4	371.56	-329.2	-2845.1	352.47	-311.26	-2877.9	321	-325.72	NaN	NaN	NaN	-2968.5	54.976	-235.29	-2974.8	57.046	-325.98	-2635.3	327.56	29.284	-2647	362.6	29.347	-2609.8	355.13	21.261	NaN	NaN	NaN	-2643.6	60.099	39.105	-2634.4	61.576	-54.79	-3032.6	41.221	-283	-2950.5	21.155	-241.11	-2960.8	32.631	-336.25	-2858.2	30.673	-325.49	-2881.2	13.416	-366.69	NaN	NaN	NaN	-2619.2	34.614	-49.786	-2623	39.103	46.464	-2523.7	62.545	20.784	-2553	48.868	66.834
6	0.05	NaN	NaN	NaN	NaN	NaN	NaN	NaN	NaN	NaN	NaN	NaN	NaN	-2722.8	1352.3	-379.9	-2742.5	1377.9	-12.689	NaN	NaN	NaN	NaN	NaN	NaN	-2703.5	890.84	-85.405	NaN	NaN	NaN	NaN	NaN	NaN	-2807.9	981.93	-325.06	-2745.6	974.79	-50.071	-2820.5	667.37	-352.49	-2801.1	709.5	-358.46	NaN	NaN	NaN	NaN	NaN	NaN	NaN	NaN	NaN	-2856.5	447.43	-199.58	-2717.2	686.23	-4.2202	-2752	712.21	-8.6133	-2716.1	729.38	-13.607	NaN	NaN	NaN	NaN	NaN	NaN	-2627.4	451.57	-107.96	-2871.2	372.74	-329.14	-2842.7	350.39	-310.61	-2875.6	320.09	-325.07	NaN	NaN	NaN	-2968.2	54.998	-235.12	-2974.8	57.691	-326.15	-2632.3	325.16	29.669	-2643.5	360.44	30.116	-2606.5	352.58	21.703	NaN	NaN	NaN	-2647.4	59.731	37.679	-2637.8	61.367	-55.737	-3032.4	41.604	-282.78	-2950.3	21.164	-241.06	-2960.8	32.668	-336.09	-2858.4	31.358	-325.19	-2881.2	13.415	-366.62	NaN	NaN	NaN	-2623.3	33.086	-50.455	-2624.1	40.281	45.818	-2526.6	59.275	18.444	-2555.4	47.149	65.051
7	0.06	NaN	NaN	NaN	NaN	NaN	NaN	NaN	NaN	NaN	NaN	NaN	NaN	-2717.9	1352.9	-375.67	-2737.2	1375.7	-8.3065	NaN	NaN	NaN	NaN	NaN	NaN	-2698	889.37	-83.698	NaN	NaN	NaN	NaN	NaN	NaN	-2801.4	981.47	-323.62	-2740	973.05	-48.311	-2815.6	666.57	-351.77	-2795.7	708.58	-357.26	NaN	NaN	NaN	NaN	NaN	NaN	NaN	NaN	NaN	-2853.3	446.62	-198.7	-2712.1	683.39	-3.0464	-2746.8	709.47	-7.627	-2710.8	726.86	-11.79	NaN	NaN	NaN	NaN	NaN	NaN	-2621.6	451.03	-107.1	-2872.3	369.63	-327.04	-2839.6	350.38	-309.84	-2873.4	319.86	-324.48	NaN	NaN	NaN	-2967.9	54.961	-235.13	-2974.4	58.024	-325.88	-2630.2	324	29.757	-2640.3	359.21	30.23	-2603.5	350.58	22.064	NaN	NaN	NaN	-2650.3	59.22	36.741	-2640.3	61.912	-57.697	-3032.1	41.981	-282.63	-2949.9	21.59	-240.97	-2960.6	32.72	-335.9	-2858.4	31.328	-325.18	-2881.2	13.503	-366.56	NaN	NaN	NaN	-2624.8	33.11	-52.234	-2626.7	39.675	44.898	-2529.2	56.427	16.278	-2557.5	45.038	62.966
8	0.07	NaN	NaN	NaN	NaN	NaN	NaN	NaN	NaN	NaN	NaN	NaN	NaN	-2712.8	1353.6	-371.38	-2732	1373.6	-3.8391	NaN	NaN	NaN	NaN	NaN	NaN	-2692.4	887.69	-82.201	NaN	NaN	NaN	NaN	NaN	NaN	-2794.9	981.25	-322.11	-2734.8	971.65	-46.422	-2810.2	665.83	-350.67	-2790	707.61	-356.21	NaN	NaN	NaN	NaN	NaN	NaN	NaN	NaN	NaN	-2850	445.76	-197.84	-2706.4	681.79	-1.5751	-2740.6	706.55	-7.4159	-2705.6	725.49	-9.4261	NaN	NaN	NaN	NaN	NaN	NaN	-2612.7	453.36	-108.27	-2869.2	368.83	-326.28	-2836.6	350.35	-308.98	-2870.9	319.37	-323.73	NaN	NaN	NaN	-2967.6	55.134	-235.04	-2974.1	58.357	-325.61	-2628.3	322.91	29.698	-2637.4	358.42	30.258	-2600.6	348.95	22.375	NaN	NaN	NaN	-2652.3	58.99	35.95	-2641.5	61.916	-58.604	-3031.9	42.605	-282.62	-2949.9	21.537	-240.81	-2960.3	33.046	-335.8	-2858.2	31.261	-325.15	-2881	13.266	-366.52	NaN	NaN	NaN	-2627	32.395	-53.128	-2629.7	38.121	43.605	-2529.8	52.279	14.045	-2558.8	42.414	61.666
